<?xml version="1.0" encoding="UTF-8"?>
<svg width="38px" height="28px" viewBox="0 0 38 28" version="1.1" xmlns="http://www.w3.org/2000/svg" xmlns:xlink="http://www.w3.org/1999/xlink">
    <!-- Generator: Sketch 64 (93537) - https://sketch.com -->
    <title>package</title>
    <desc>Created with Sketch.</desc>
    <g id="Page-1" stroke="none" stroke-width="1" fill="none" fill-rule="evenodd">
        <g id="package" transform="translate(0.666667, 0.666667)" fill="#000000" fill-rule="nonzero">
            <path d="M7.892125,26.638875 C6.51959722,26.638875 5.35184722,26.1581667 4.388875,25.19675 C3.42590278,24.2353333 2.94441667,23.0679028 2.94441667,21.6944583 L0,21.6944583 L0,2.77775 C0,2.02775 0.275458333,1.37729167 0.826375,0.826375 C1.37729167,0.275458333 2.02775,0 2.77775,0 L26.638875,0 L26.638875,6.861125 L31.2222083,6.861125 L36.6666667,14.111125 L36.6666667,21.6944583 L33.5833333,21.6944583 C33.5833333,23.0679028 33.1029444,24.2353333 32.1421667,25.19675 C31.1813889,26.1581667 30.0147222,26.638875 28.6421667,26.638875 C27.2696111,26.638875 26.1018611,26.1581667 25.1389167,25.19675 C24.1759444,24.2353333 23.6944583,23.0679028 23.6944583,21.6944583 L12.8333333,21.6944583 C12.8333333,23.0648194 12.3529306,24.2314861 11.392125,25.1944583 C10.4313472,26.1574028 9.26468056,26.638875 7.892125,26.638875 L7.892125,26.638875 Z M7.888875,23.861125 C8.49073611,23.861125 9.00231944,23.6504722 9.423625,23.2291667 C9.84490278,22.8078611 10.0555417,22.2962917 10.0555417,21.6944583 C10.0555417,21.0925972 9.84490278,20.5810139 9.423625,20.1597083 C9.00231944,19.7384028 8.49073611,19.52775 7.888875,19.52775 C7.28701389,19.52775 6.77543056,19.7384028 6.354125,20.1597083 C5.93284722,20.5810139 5.72220833,21.0925972 5.72220833,21.6944583 C5.72220833,22.2962917 5.93284722,22.8078611 6.354125,23.2291667 C6.77543056,23.6504722 7.28701389,23.861125 7.888875,23.861125 L7.888875,23.861125 Z M2.77775,18.9166667 L3.83329167,18.9166667 C4.30551389,18.25 4.88459722,17.7175972 5.57054167,17.3194583 C6.25648611,16.9212917 7.02038889,16.7222083 7.86225,16.7222083 C8.70408333,16.7222083 9.47222222,16.9259167 10.1666667,17.3333333 C10.8611111,17.74075 11.4444444,18.2685278 11.9166667,18.9166667 L23.861125,18.9166667 L23.861125,2.77775 L2.77775,2.77775 L2.77775,18.9166667 Z M28.6389167,23.861125 C29.24075,23.861125 29.7523194,23.6504722 30.173625,23.2291667 C30.5949306,22.8078611 30.8055833,22.2962917 30.8055833,21.6944583 C30.8055833,21.0925972 30.5949306,20.5810139 30.173625,20.1597083 C29.7523194,19.7384028 29.24075,19.52775 28.6389167,19.52775 C28.0370556,19.52775 27.5254722,19.7384028 27.1041667,20.1597083 C26.6828611,20.5810139 26.4722083,21.0925972 26.4722083,21.6944583 C26.4722083,22.2962917 26.6828611,22.8078611 27.1041667,23.2291667 C27.5254722,23.6504722 28.0370556,23.861125 28.6389167,23.861125 Z M26.638875,15.4166667 L34.1666667,15.4166667 L29.8333333,9.638875 L26.638875,9.638875 L26.638875,15.4166667 Z" id="Shape"></path>
        </g>
    </g>
</svg>