<svg xmlns="http://www.w3.org/2000/svg" height="20" viewBox="0 -960 960 960" width="20"><path d="M377.539-116.001q-22.923 0-40.499-14.27-17.577-14.269-22.192-36.576l-38.077-174.538h406.458l-38.077 174.538q-4.615 22.307-22.492 36.576-17.876 14.27-41.199 14.27H377.539ZM480-658.537q3.846-69.23 52.538-117.922 48.692-48.692 117.922-52.154-3.462 60.153-43.308 107.691-39.846 47.538-101.153 59.538v105.385h283.076v106.923q0 26.622-18.842 45.465-18.842 18.842-45.465 18.842H236.001q-26.622 0-45.465-18.842-18.842-18.843-18.842-45.465v-106.923h282.307v-105.385q-61.307-12-100.961-59.345-39.654-47.346-43.5-107.884 69.23 3.462 117.922 52.154Q476.154-727.767 480-658.537Z"/></svg>